<?xml version="1.0" standalone="no"?><!DOCTYPE svg PUBLIC "-//W3C//DTD SVG 1.1//EN" "http://www.w3.org/Graphics/SVG/1.1/DTD/svg11.dtd"><svg t="1560320528110" class="icon" style="" viewBox="0 0 1024 1024" version="1.1" xmlns="http://www.w3.org/2000/svg" p-id="1993" xmlns:xlink="http://www.w3.org/1999/xlink" width="128" height="128"><defs><style type="text/css"></style></defs><path d="M967.946868 841.77999 967.946868 527.873711C967.946868 507.776719 951.636265 491.466117 931.539273 491.466117 911.442281 491.466117 895.131679 507.776719 895.131679 527.873711L895.131679 841.77999C895.131679 861.876982 878.675446 878.333215 858.578454 878.333215L111.640247 878.333215C91.47044 878.333215 75.087023 861.876982 75.087023 841.77999L75.087023 109.332006C75.087023 89.235014 91.47044 72.778781 111.640247 72.778781L435.085316 72.778781C455.182308 72.778781 471.49291 56.540994 471.49291 36.371187 471.49291 16.274195 455.182308-0.036408 435.085316-0.036408L111.640247-0.036408C51.349271-0.036408 2.271834 49.04103 2.271834 109.332006L2.271834 841.77999C2.271834 902.070966 51.349271 951.148404 111.640247 951.148404L858.578454 951.148404C918.86943 951.148404 967.946868 902.070966 967.946868 841.77999M967.946868 332.219299C967.946868 352.316291 951.636265 368.626893 931.539273 368.626893L672.171571 368.626893 672.171571 627.994596C672.171571 648.164403 655.860968 664.40219 635.763976 664.40219 615.594169 664.40219 599.356382 648.164403 599.356382 627.994596L599.356382 368.626893 339.915864 368.626893C319.818872 368.626893 303.50827 352.316291 303.50827 332.219299 303.50827 312.122307 319.818872 295.811704 339.915864 295.811704L599.356382 295.811704 599.356382 36.371187C599.356382 16.274195 615.594169-0.036408 635.763976-0.036408 655.860968-0.036408 672.171571 16.274195 672.171571 36.371187L672.171571 295.811704 931.539273 295.811704C951.636265 295.811704 967.946868 312.122307 967.946868 332.219299" p-id="1994"></path></svg>