<?xml version="1.0" standalone="no"?><!DOCTYPE svg PUBLIC "-//W3C//DTD SVG 1.1//EN" "http://www.w3.org/Graphics/SVG/1.1/DTD/svg11.dtd"><svg t="1560331648946" class="icon" style="" viewBox="0 0 1024 1024" version="1.1" xmlns="http://www.w3.org/2000/svg" p-id="2122" xmlns:xlink="http://www.w3.org/1999/xlink" width="128" height="128"><defs><style type="text/css"></style></defs><path d="M870.471749 600.338599 855.811487 600.338599 753.665525 378.311602C750.352783 371.063834 743.068409 366.396709 735.070239 366.396709L289.131094 366.396709C281.114622 366.396709 273.885155 371.063834 270.499202 378.311602L168.371543 600.338599 153.656374 600.338599C128.142762 600.338599 107.277971 621.221691 107.277971 646.753607L107.277971 837.666444C107.277971 863.180057 128.142762 884.063149 153.656374 884.063149L155.559829 884.063149 155.559829 955.460996C155.559829 989.64997 183.544272 1017.616111 217.714942 1017.616111L218.172504 1017.616111C252.361476 1017.616111 280.327616 989.64997 280.327616 955.460996L280.327616 884.063149 743.763901 884.063149 743.763901 955.460996C743.763901 989.64997 771.711739 1017.616111 805.95562 1017.616111L806.413181 1017.616111C840.547246 1017.616111 868.568294 989.64997 868.568294 955.460996L868.568294 884.063149 870.435144 884.063149C895.985361 884.063149 916.868454 863.161749 916.868454 837.666444L916.868454 646.753607C916.905059 621.221691 896.003663 600.338599 870.471749 600.338599L870.471749 600.338599ZM218.501947 799.798677C186.472664 799.798677 160.50149 773.845805 160.50149 741.816521 160.50149 709.787238 186.454361 683.816064 218.501947 683.816064 250.531231 683.816064 276.484103 709.787238 276.484103 741.816521 276.484103 773.845805 250.512929 799.798677 218.501947 799.798677L218.501947 799.798677ZM213.43217 600.338599 302.199042 407.339285 721.983988 407.339285 810.769164 600.338599 213.43217 600.338599 213.43217 600.338599ZM805.681083 799.798677C773.670101 799.798677 747.71723 773.845805 747.71723 741.816521 747.71723 709.787238 773.670101 683.816064 805.681083 683.816064 837.728669 683.816064 863.699842 709.787238 863.699842 741.816521 863.699842 773.845805 837.728669 799.798677 805.681083 799.798677L805.681083 799.798677ZM847.15443 198.746285C824.221462 198.746285 805.406546 179.967974 805.406546 156.998402L805.406546 109.558457C805.406546 86.607187 824.221462 67.792271 847.15443 67.792271L919.943265 67.792271C897.138415 28.185773 854.420501 1.445897 805.406546 1.445897 749.565777 1.445897 701.906202 36.129036 682.523911 85.088084L341.677422 85.088084C322.276828 36.129036 274.617253 1.445897 218.758182 1.445897 169.762529 1.445897 127.062918 28.185773 104.20316 67.792271L177.010298 67.792271C199.998172 67.792271 218.776484 86.588885 218.776484 109.558457L218.776484 156.998402C218.776484 179.949672 200.016475 198.746285 177.010298 198.746285L103.745599 198.746285C126.440634 238.828646 169.39648 265.91627 218.758182 265.91627 274.617253 265.91627 322.276828 231.214828 341.677422 182.274083L682.523911 182.274083C701.906202 231.214828 749.565777 265.91627 805.406546 265.91627 854.749945 265.91627 897.760699 238.828646 920.455734 198.746285L847.15443 198.746285 847.15443 198.746285Z" p-id="2123"></path></svg>