<?xml version="1.0" standalone="no"?><!DOCTYPE svg PUBLIC "-//W3C//DTD SVG 1.1//EN" "http://www.w3.org/Graphics/SVG/1.1/DTD/svg11.dtd"><svg t="1562117817361" class="icon" viewBox="0 0 1024 1024" version="1.1" xmlns="http://www.w3.org/2000/svg" p-id="2234" xmlns:xlink="http://www.w3.org/1999/xlink" width="128" height="128"><defs><style type="text/css"></style></defs><path d="M935.308726 394.688205L534.660668 113.358831c-2.797482-2.797482-7.05452-5.716593-9.973632-7.054519-11.311557-7.05452-28.461337-2.797482-36.975412 9.973631l-397.728947 279.748188c-12.771113 8.514075-14.230669 27.001782-4.257037 41.232451s28.461337 18.487706 39.772894 9.973631l27.001782-19.947262v461.706141c0 17.028151 14.230669 31.258819 31.258819 31.258819s31.258819-14.230669 31.25882-31.258819V383.255018l298.357524-208.838104 301.155007 211.635586v501.479036c0 17.028151 14.230669 31.258819 31.258819 31.258819s31.258819-14.230669 31.258819-31.258819V431.541988l21.285189 14.230669c12.771113 8.514075 29.799264 4.257038 39.772894-9.973631 9.973631-14.109039 8.635705-32.596745-2.797481-41.110821z" p-id="2235"></path><path d="M322.660192 478.612662m-39.651265 0a39.651265 39.651265 0 1 0 79.30253 0 39.651265 39.651265 0 1 0-79.30253 0Z" p-id="2236"></path><path d="M322.660192 654.124243m-39.651265 0a39.651265 39.651265 0 1 0 79.30253 0 39.651265 39.651265 0 1 0-79.30253 0Z" p-id="2237"></path><path d="M322.660192 834.744269m-39.651265 0a39.651265 39.651265 0 1 0 79.30253 0 39.651265 39.651265 0 1 0-79.30253 0Z"  p-id="2238"></path><path d="M750.796551 478.855921c0 16.906521-13.74415 30.650671-30.650671 30.650671H454.263471c-16.906521 0-30.650671-13.74415-30.650671-30.650671 0-16.906521 13.74415-30.650671 30.650671-30.650671h265.882409c16.906521 0 30.650671 13.74415 30.650671 30.650671zM750.796551 654.124243c0 16.906521-13.74415 30.650671-30.650671 30.650671H454.263471c-16.906521 0-30.650671-13.74415-30.650671-30.650671 0-16.906521 13.74415-30.650671 30.650671-30.650671h265.882409c16.906521-0.12163 30.650671 13.62252 30.650671 30.650671zM750.796551 834.744269c0 16.906521-13.74415 30.650671-30.650671 30.650671H454.263471c-16.906521 0-30.650671-13.74415-30.650671-30.650671 0-16.906521 13.74415-30.650671 30.650671-30.650671h265.882409c16.906521-0.12163 30.650671 13.62252 30.650671 30.650671z" p-id="2239"></path></svg>