<?xml version="1.0" standalone="no"?><!DOCTYPE svg PUBLIC "-//W3C//DTD SVG 1.1//EN" "http://www.w3.org/Graphics/SVG/1.1/DTD/svg11.dtd"><svg t="1562751786558" class="icon" viewBox="0 0 1024 1024" version="1.1" xmlns="http://www.w3.org/2000/svg" p-id="2308" xmlns:xlink="http://www.w3.org/1999/xlink" width="128" height="128"><defs><style type="text/css"></style></defs><path d="M729.820374 698.89335l1.512974 0-0.525644 218.884996c-0.987331 26.286977 8.051541 41.067956 32.099237 41.067956 23.950761 0 30.519108-21.206622 30.48633-36.735094l-0.995325-225.032828L729.820374 698.89335 729.820374 698.89335z" p-id="2309"></path><path d="M573.957449 958.492742 229.562349 958.492742c-52.412264 0-87.22666-27.151591-87.22666-91.825342L142.335688 172.496647c0-45.739389 41.486672-87.224662 87.22666-87.224662l583.856146 0c43.049812 0 87.225661 41.485273 87.225661 87.224662l0 415.067584c0 10.761704-15.361585 21.523407-26.124088 21.523407-10.762703 0-26.123288-10.761704-26.123288-21.523407L848.396779 172.496647c0-16.142056-16.143055-32.28611-32.287109-32.28611L229.562349 140.210537c-16.143055 0-32.287109 16.144054-32.287109 32.28611l0 699.552903c0 18.470477 16.669698 32.28611 32.287109 32.28611l339.013749 0c10.762703 0 21.524406 16.510806 21.524406 27.275507C590.100304 945.063847 584.721151 958.492742 573.957449 958.492742L573.957449 958.492742zM559.401318 733.265046 312.968999 733.265046c-10.760704 0-21.523407-15.362584-21.523407-26.123288 0-10.764702 10.762703-26.127286 21.523407-26.127286l246.432319 0c10.763702 0 21.994088 11.436246 21.525406 28.426727C580.818797 722.923058 570.16502 733.265046 559.401318 733.265046L559.401318 733.265046zM727.31907 531.473261l-419.731422 0c-10.761704 0-21.524406-15.361585-21.524406-26.124288 0-10.764702 10.762703-26.125287 21.524406-26.125287l422.420599 0c10.764702 0 21.526405 15.360586 21.526405 26.125287C751.534452 516.111876 738.080773 531.473261 727.31907 531.473261L727.31907 531.473261zM732.700421 343.131557l-419.731422 0c-10.760704 0-21.523407-15.362584-21.523407-26.124288 0-10.762703 10.762703-26.124288 21.523407-26.124288l422.421598 0c10.761704 0 21.525406 15.361585 21.525406 26.124288C756.916003 327.768973 746.152301 343.131557 732.700421 343.131557L732.700421 343.131557zM644.150658 791.862117c13.213042 13.211043 31.057943 6.557554 42.629097-5.013601l77.703117-78.241752 79.701762 79.700763c14.038482 14.038482 33.169511 12.264685 45.11741 0 10.950576-11.244376 9.716412-29.398068-3.001965-42.116245l-101.779793-94.760552c-14.037483-14.039481-28.211872-13.902574-42.115246 0l-100.945359 100.066955C632.875303 760.082664 628.615191 776.326651 644.150658 791.862117L644.150658 791.862117z" p-id="2310"></path></svg>