<?xml version="1.0" standalone="no"?><!DOCTYPE svg PUBLIC "-//W3C//DTD SVG 1.1//EN" "http://www.w3.org/Graphics/SVG/1.1/DTD/svg11.dtd"><svg t="1562306815849" class="icon" viewBox="0 0 1024 1024" version="1.1" xmlns="http://www.w3.org/2000/svg" p-id="4284" xmlns:xlink="http://www.w3.org/1999/xlink" width="128" height="128"><defs><style type="text/css"></style></defs><path d="M800.680131 900.907984l-1.512974 0 0.525644-218.884996c0.987331-26.287177-4.981622-41.068955-29.029318-41.068955-23.950761 0-33.589227 21.206622-33.556249 36.735094l0.995325 225.033827L800.680131 900.907984 800.680131 900.907984z" p-id="4285"></path><path d="M573.958448 958.494741 229.562748 958.494741c-52.412264 0-87.22666-27.151591-87.22666-91.825542L142.336088 172.497247c0-45.739788 41.486672-87.225061 87.22666-87.225061l583.857744 0c43.049812 0 87.225661 41.485273 87.225661 87.225061l0 415.067984c0 10.761704-15.361585 21.523407-26.124288 21.523407-10.762703 0-26.123288-10.761704-26.123288-21.523407L848.398578 172.497247c0-16.142455-16.143055-32.28651-32.286909-32.28651L229.562748 140.210737c-16.143055 0-32.287109 16.144054-32.287109 32.28651l0 699.554502c0 18.470477 16.669698 32.28611 32.287109 32.28611l339.014348 0c10.762703 0 21.524406 16.510806 21.524406 27.275507C590.101503 945.065845 584.72215 958.494741 573.958448 958.494741L573.958448 958.494741zM559.402317 733.267045 312.969998 733.267045c-10.760704 0-21.523407-15.362584-21.523407-26.123288 0-10.764702 10.762703-26.127286 21.523407-26.127286l246.432319 0c10.763702 0 21.994088 11.436246 21.525406 28.426727C580.819796 722.925057 570.166019 733.267045 559.402317 733.267045L559.402317 733.267045zM727.321068 531.47446 307.588647 531.47446c-10.761704 0-21.524406-15.361585-21.524406-26.124288 0-10.764702 10.762703-26.125287 21.524406-26.125287l422.421598 0c10.764702 0 21.526405 15.360586 21.526405 26.125287C751.53645 516.112875 738.082772 531.47446 727.321068 531.47446L727.321068 531.47446zM732.70242 343.132556 312.969998 343.132556c-10.760704 0-21.523407-15.362584-21.523407-26.124288 0-10.762703 10.762703-26.124687 21.523407-26.124687l422.422597 0c10.761704 0 21.525406 15.361985 21.525406 26.124687C756.918002 327.769972 746.154299 343.132556 732.70242 343.132556L732.70242 343.132556zM886.349847 807.939217c-13.213042-13.211043-31.057943-6.557554-42.629097 5.013601l-77.703117 78.241752-79.701762-79.700763c-14.038482-14.038482-33.169311-12.264685-45.117211 0-10.950576 11.244376-9.716412 29.398068 3.001965 42.116245l101.779793 94.760552c14.037483 14.039481 28.211872 13.902574 42.115246 0l100.945359-100.066955C897.625002 839.718471 901.885114 823.474684 886.349847 807.939217L886.349847 807.939217z" p-id="4286"></path></svg>