<?xml version="1.0" standalone="no"?><!DOCTYPE svg PUBLIC "-//W3C//DTD SVG 1.1//EN" "http://www.w3.org/Graphics/SVG/1.1/DTD/svg11.dtd"><svg t="1562117746572" class="icon" viewBox="0 0 1024 1024" version="1.1" xmlns="http://www.w3.org/2000/svg" p-id="2020" xmlns:xlink="http://www.w3.org/1999/xlink" width="128" height="128"><defs><style type="text/css"></style></defs><path d="M1004.544 414.235h-126.761v-23.613l-356.672-292.048-347.972 285.834v29.826h-135.46l483.433-395.197z" p-id="2021"></path><path d="M881.511 921.279h-702.158c-17.398 0-31.069-13.67-31.069-31.069v-538.113h62.138v507.045h640.019v-507.045h62.138v538.113c0 17.398-14.913 31.069-31.069 31.069z" p-id="2022"></path><path d="M454.003 814.403h-134.218c-13.67 0-24.854-11.184-24.854-24.854v-110.606c0-13.67 11.184-24.854 24.854-24.854h134.218c13.67 0 24.854 11.184 24.854 24.854v110.606c0 13.67-11.184 24.854-24.854 24.854zM742.321 814.403h-132.976c-13.67 0-24.854-11.184-24.854-24.854v-110.606c0-13.67 11.184-24.854 24.854-24.854h134.218c13.67 0 24.854 11.184 24.854 24.854v110.606c-1.243 13.67-12.428 24.854-26.098 24.854zM600.648 609.348h-134.218c-13.67 0-24.854-11.184-24.854-24.854v-110.606c0-13.67 11.184-24.854 24.854-24.854h134.218c13.67 0 24.854 11.184 24.854 24.854v110.606c0 13.67-11.184 24.854-24.854 24.854z" p-id="2023"></path></svg>