<?xml version="1.0" standalone="no"?><!DOCTYPE svg PUBLIC "-//W3C//DTD SVG 1.1//EN" "http://www.w3.org/Graphics/SVG/1.1/DTD/svg11.dtd"><svg t="1562138675574" class="icon" viewBox="0 0 1024 1024" version="1.1" xmlns="http://www.w3.org/2000/svg" p-id="3728" xmlns:xlink="http://www.w3.org/1999/xlink" width="128" height="128"><defs><style type="text/css"></style></defs><path d="M926 291.8H698.6c-5.5 0-10 4.5-10 10v12c0 5.5 4.5 10 10 10H926c5.5 0 10-4.5 10-10v-12c0-5.5-4.5-10-10-10zM926 752.2H698.6c-5.5 0-10 4.5-10 10v12c0 5.5 4.5 10 10 10H926c5.5 0 10-4.5 10-10v-12c0-5.5-4.5-10-10-10zM926 522H698.6c-5.5 0-10 4.5-10 10v12c0 5.5 4.5 10 10 10H926c5.5 0 10-4.5 10-10v-12c0-5.5-4.5-10-10-10zM340.2 421.5h-0.3c-30.4 0.1-59 12-80.5 33.6s-33.2 50.2-33.1 80.7c0.2 62.7 51.3 113.6 113.9 113.6h0.3c62.8-0.2 113.8-51.4 113.6-114.3-0.1-30.4-12-59-33.6-80.5-21.5-21.4-50-33.1-80.3-33.1z m0.2 195.9h-0.2c-45.1 0-81.8-36.6-81.9-81.7-0.1-21.9 8.4-42.5 23.8-58s36-24.1 57.9-24.2h0.2c21.8 0 42.3 8.5 57.8 23.8 15.5 15.4 24.1 36 24.2 57.9 0 45.2-36.6 82.1-81.8 82.2z" p-id="3729"></path><path d="M629.9 489.1c17.4-15.8 23.7-40.1 16-62-12.4-35.1-30.7-67.6-54.4-96.6-14.8-18.2-39-25.5-61.5-18.8-18 5.4-37.6 3-53.6-6.5s-27.5-25.5-31.5-43.9c-5-23.1-23.1-40.7-46.2-44.9-18-3.3-36.6-5.1-55-5.3-18.5-0.2-37 1.2-55.2 4.1-23.2 3.7-41.7 20.9-47.2 43.9-4.4 18.3-16.2 34.1-32.4 43.2-16.2 9.1-35.8 11.1-53.8 5.3-22.4-7.2-46.7-0.3-61.9 17.5C69 353.6 50 385.7 36.8 420.5c-8.2 21.7-2.5 46.1 14.6 62.3 13.7 12.9 21.4 31.1 21.2 49.7-0.2 18.7-8.3 36.6-22.3 49.3-17.4 15.8-23.7 40.1-16 62 12.4 35.1 30.7 67.6 54.4 96.6 14.8 18.2 38.9 25.5 61.5 18.8 18-5.4 37.6-3 53.6 6.5s27.5 25.5 31.5 43.9c5 23.1 23.1 40.7 46.2 44.9 18 3.3 36.6 5.1 55 5.3h3.6c17.3 0 34.6-1.4 51.6-4.1 23.2-3.7 41.7-20.9 47.2-43.9 4.4-18.3 16.2-34.1 32.4-43.2 16.2-9.1 35.8-11.1 53.8-5.3 22.4 7.2 46.7 0.3 61.9-17.5 24.3-28.5 43.3-60.5 56.5-95.3 8.2-21.7 2.5-46.1-14.6-62.3-13.7-12.9-21.4-31.1-21.2-49.7 0.1-18.8 8.3-36.8 22.2-49.4z m-21.4-23.7C587.9 484 576 510.5 575.7 538c-0.3 27.6 11.1 54.3 31.2 73.3 7.7 7.3 10.3 18.1 6.7 27.7-11.9 31.4-29 60.3-50.9 85.9-6.8 8-17.7 11-27.8 7.8-26.4-8.5-55.3-5.6-79.2 7.9-24 13.5-41.4 36.7-47.9 63.7-2.5 10.3-10.7 18.1-21.1 19.7-16.3 2.6-33.1 3.8-49.7 3.7-16.7-0.2-33.4-1.8-49.7-4.7-10.3-1.9-18.4-9.8-20.7-20.2-5.8-27.1-22.8-50.7-46.5-64.7-15.4-9.1-32.9-13.8-50.6-13.8-9.6 0-19.2 1.4-28.5 4.1-10.1 3-21-0.3-27.6-8.4-21.3-26.1-37.8-55.4-49-87-3.4-9.6-0.6-20.5 7.3-27.5 20.6-18.6 32.5-45.1 32.8-72.6 0.3-27.6-11.1-54.3-31.2-73.3-7.7-7.3-10.3-18.1-6.7-27.7 11.9-31.4 29-60.3 50.9-85.9 6.8-8 17.7-11 27.8-7.8 26.4 8.5 55.3 5.6 79.2-7.9 24-13.5 41.4-36.7 47.9-63.7 2.5-10.3 10.7-18.1 21.1-19.7 16.3-2.6 33.1-3.8 49.7-3.7 16.7 0.2 33.4 1.8 49.7 4.7 10.3 1.9 18.4 9.8 20.7 20.2 5.8 27.1 22.8 50.7 46.5 64.7s52.5 17.5 79.1 9.6c10.1-3 21 0.3 27.6 8.4 21.3 26.1 37.8 55.4 49 87 3.4 9.7 0.5 20.5-7.3 27.6z" p-id="3730"></path></svg>