<?xml version="1.0" standalone="no"?><!DOCTYPE svg PUBLIC "-//W3C//DTD SVG 1.1//EN" "http://www.w3.org/Graphics/SVG/1.1/DTD/svg11.dtd"><svg t="1562138661965" class="icon" viewBox="0 0 1024 1024" version="1.1" xmlns="http://www.w3.org/2000/svg" p-id="2981" xmlns:xlink="http://www.w3.org/1999/xlink" width="128" height="128"><defs><style type="text/css"></style></defs><path d="M832.35328 170.30826667C746.8288 84.67114667 633.02656 37.54666667 512 37.54666667s-234.8288 47.12448-320.43008 132.7616A450.05824 450.05824 0 0 0 58.88 490.66666667c0 88.21248 25.37472 173.70112 73.28768 247.21408a31.53408 31.53408 0 1 0 52.79232-34.432A388.48 388.48 0 0 1 121.93792 490.66666667c0-215.08096 174.94016-390.06208 390.06208-390.06208 215.04 0 390.06208 174.98112 390.06208 390.06208 0 215.08096-175.02208 390.09792-390.06208 390.09792-71.25504 0-140.91776-19.37408-201.48736-56.00256a31.5392 31.5392 0 0 0-32.6656 53.91872A452.31616 452.31616 0 0 0 512 943.78666667c121.02144 0 234.8288-47.12448 320.35328-132.72576C918.00064 725.49546667 965.12 611.69322667 965.12 490.66666667c0-121.02144-47.11936-234.8288-132.76672-320.3584z" p-id="2982"></path><path d="M672.86016 456.53162667c19.18464-20.2752 28.8512-47.50336 28.8512-81.4848a130.35008 130.35008 0 0 0-8.57088-47.12448 115.68128 115.68128 0 0 0-63.06304-64.8704 133.66784 133.66784 0 0 0-39.82848-10.87488 460.0832 460.0832 0 0 0-53.17632-2.75968H386.8672c-19.90144 0-35.42016 4.608-44.32896 13.52192-8.87296 8.91392-14.3872 23.4496-14.3872 43.35104v350.8992c0 18.42688 5.09952 32.4352 13.21984 41.98912 8.04352 9.51808 19.97312 14.3104 34.7392 14.3104 13.62944 0 24.39168-4.57216 32.88576-13.6704 8.45824-9.13408 12.38528-23.33696 12.38528-42.62912v-147.71712h33.64352c16.38912 0 29.94176 2.75456 40.704 7.13728 10.76224 4.34688 21.37088 12.7232 31.9488 24.54528 10.37824 11.82208 22.27712 29.14816 35.52768 51.76832l37.00736 61.66016c8.76032 14.53568 15.63136 25.56416 20.73088 33.03936 5.0944 7.43936 11.136 13.62944 18.2016 18.50368 7.02464 4.86912 15.70816 7.3216 26.09152 7.3216 8.68864 0 16.38912-1.73568 22.99904-5.13024 6.64576-3.43552 11.8528-8.1152 15.70816-14.00832 3.85024-5.888 5.7344-11.8528 5.7344-17.8944 0-5.78048-3.2512-16.46592-9.81504-31.90784a394.2144 394.2144 0 0 0-27.38176-51.92192 385.09568 385.09568 0 0 0-39.9872-54.2976c-14.91456-16.99328-30.62272-29.82912-46.976-38.5536 39.08608-8.42752 68.16256-22.85056 87.34208-43.20256z m-76.76416-37.45792c-8.04352 9.21088-19.6352 15.104-34.7392 18.99008-15.104 3.8144-33.79712 5.13536-55.9616 5.13536H421.4528V318.82410667h86.43584c31.7184 0 52.93568 2.3808 63.73376 6.94784 11.4432 4.79744 20.36224 12.0064 26.77248 21.67296 6.4256 9.66656 9.66656 20.84352 9.66656 33.49504-0.04096 16.12288-4.00384 28.88192-11.96544 38.13376z" p-id="2983"></path></svg>