<?xml version="1.0" standalone="no"?><!DOCTYPE svg PUBLIC "-//W3C//DTD SVG 1.1//EN" "http://www.w3.org/Graphics/SVG/1.1/DTD/svg11.dtd"><svg t="1562138546392" class="icon" viewBox="0 0 1024 1024" version="1.1" xmlns="http://www.w3.org/2000/svg" p-id="1283" xmlns:xlink="http://www.w3.org/1999/xlink" width="128" height="128"><defs><style type="text/css"></style></defs><path d="M541.965273 905.297622h-60.119134c-23.404043 0-28.377402 4.973359-28.377402 28.377401v61.8013c0 23.404043 4.973359 28.450539 28.377402 28.450539h60.192272c23.404043 0 28.377402-5.046497 28.377401-28.450539v-61.8013c-1.682166-23.404043-6.655525-28.377402-28.377401-28.377401z m-200.470252 0h-60.192272c-23.404043 0-28.377402 4.973359-28.377402 28.377401v61.8013c0 23.404043 4.973359 28.450539 28.377402 28.450539h60.192272c23.404043 0 28.377402-5.046497 28.377401-28.450539v-61.8013c-1.682166-23.404043-6.655525-28.377402-28.377401-28.377401z m0-214.293265h-60.192272c-23.404043 0-28.377402 4.973359-28.377402 28.377401v60.119135c0 23.404043 4.973359 28.450539 28.377402 28.450539h60.192272c23.404043 0 28.377402-5.046497 28.377401-28.450539v-61.8013c-1.682166-21.721877-6.655525-26.695236-28.377401-26.695236z m140.424255-202.225555c-23.404043 0-28.523677 4.973359-28.523677 28.377401v61.874438c0 23.404043 5.119634 28.377402 28.523677 28.377401H541.965273c23.404043 0 28.377402-4.973359 28.377402-28.377401V517.083065c-1.682166-23.404043-6.655525-28.377402-28.377402-28.377401h-60.192272zM541.965273 691.004357h-60.192272c-23.404043 0-28.377402 4.973359-28.377402 28.377401v60.119135c0 23.404043 4.973359 28.450539 28.377402 28.450539h60.192272c23.404043 0 28.377402-5.046497 28.377402-28.450539v-61.8013c-1.682166-21.721877-6.655525-26.695236-28.377402-26.695236zM341.495021 488.778802h-60.192272c-23.404043 0-28.377402 4.973359-28.377402 28.377401v61.874438c0 23.404043 4.973359 28.377402 28.377402 28.377401h60.192272c23.404043 0 28.377402-5.046497 28.377401-28.377401V517.083065c-1.682166-25.01307-6.655525-28.377402-28.377401-28.377401z m629.934433-71.748018L512.71022 73.649596 164.940775 333.507607v657.653596a32.76566 32.76566 0 0 1-65.531319 0V382.509821l-46.296122 34.5941a32.76566 32.76566 0 1 1-39.201771-52.51282L493.109334 6.509249a32.76566 32.76566 0 0 1 39.274909 0l478.32012 358.081852a32.76566 32.76566 0 1 1-39.274909 52.439683z m21.209914 282.311263a31.888008 31.888008 0 1 1 0 63.849154h-155.563746v155.636883a31.888008 31.888008 0 0 1-63.776016 0v-155.636883H617.662723a31.888008 31.888008 0 0 1 0-63.776016h155.636883V543.778302a31.888008 31.888008 0 0 1 63.776016 0v155.636883h155.563746z" p-id="1284"></path></svg>