<?xml version="1.0" standalone="no"?><!DOCTYPE svg PUBLIC "-//W3C//DTD SVG 1.1//EN" "http://www.w3.org/Graphics/SVG/1.1/DTD/svg11.dtd"><svg t="1566887708846" class="icon" viewBox="0 0 1024 1024" version="1.1" xmlns="http://www.w3.org/2000/svg" p-id="1450" xmlns:xlink="http://www.w3.org/1999/xlink" width="200" height="200"><defs><style type="text/css"></style></defs><path d="M876.365568 318.437539 646.546346 318.437539l0-58.530045 0-11.637038c0-48.412616-40.127929-87.799672-89.452311-87.799672l-431.016571 0c-48.295959 0-86.147032 38.568411-86.147032 87.799672l1.792832 413.260162c0 49.231261 37.851073 87.799672 86.147032 87.799672l39.768749 0 0 0.124843 31.927153 0c0 61.718667 50.02637 111.745037 111.745037 111.745037 61.717643 0 111.745037-50.02637 111.745037-111.745037l287.344381 0c0 61.718667 50.02637 111.745037 111.745037 111.745037 61.717643 0 111.745037-50.02637 111.745037-111.745037l47.89073 0L981.781456 433.689447 876.365568 318.437539zM850.113671 366.328269l83.777055 81.329307 0 158.124344-303.307957 0 0-239.45365L850.113671 366.328269zM375.165542 701.56338l0 47.89073c0 35.263132-28.591175 63.854307-63.854307 63.854307s-63.854307-28.591175-63.854307-63.854307l0-47.89073-30.134321 0 0-0.124843-89.452311 0c-21.451568 0-38.256302-17.531282-38.256302-39.908942l-1.792832-413.260162c0-22.379707 16.804734-39.908942 38.256302-39.908942l431.016571 0c22.542412 0 41.561581 18.278295 41.561581 39.908942l0 11.637038 0 60.199057 0 46.222741 0 335.235111-175.599344 0L375.165542 701.56338zM885.999996 701.56338l0 47.89073c0 35.263132-28.591175 63.854307-63.854307 63.854307s-63.854307-28.591175-63.854307-63.854307l0-47.89073-47.89073 0-79.817883 0 0-63.854307 303.307957 0 0 63.854307L885.999996 701.56338z" p-id="1451"></path></svg>