<?xml version="1.0" standalone="no"?><!DOCTYPE svg PUBLIC "-//W3C//DTD SVG 1.1//EN" "http://www.w3.org/Graphics/SVG/1.1/DTD/svg11.dtd"><svg t="1560331675802" class="icon" style="" viewBox="0 0 1024 1024" version="1.1" xmlns="http://www.w3.org/2000/svg" p-id="3647" xmlns:xlink="http://www.w3.org/1999/xlink" width="128" height="128"><defs><style type="text/css"></style></defs><path d="M623.43516919 263.44865185c0 4.34964859 1.86413511 9.32067555 4.97102697 13.67032415 26.09789155 31.06891852 46.60337778 57.78818845 62.13783703 79.53643141-9.94205392 18.64135111-17.39859437 36.66132385-22.36962133 52.81716148l-107.49845807 16.777216c-4.34964859 0.62137837-8.07791882 3.10689185-11.18481067 7.45654044s-4.97102697 8.69929718-4.97102696 13.67032415v128.0039443c0 4.97102697 1.86413511 9.32067555 4.97102696 13.67032414 3.10689185 3.72827022 7.45654045 6.2137837 11.80618904 7.45654045l105.63432296 16.15583763c4.97102697 15.53445925 13.04894578 34.79718875 23.61237807 57.16681008-6.83516208 9.94205392-17.39859437 24.23375645-31.06891852 41.63235081-13.67032415 17.39859437-23.61237808 29.82616178-29.20478341 37.28270222-3.10689185 4.34964859-4.97102697 9.32067555-4.97102695 13.04894578 0 12.42756741 33.554432 49.71026963 100.04191762 111.22672829 4.34964859 3.72827022 9.32067555 5.59240533 14.29170252 5.59240534 5.59240533 0 9.94205392-1.86413511 13.67032414-4.97102697l82.0219449-61.51645866c18.64135111 9.94205392 36.03994548 16.777216 52.1957831 21.74824296l16.15583764 106.25570133c0.62137837 4.34964859 2.48551348 8.69929718 6.83516208 12.42756741s8.69929718 4.97102697 13.67032414 4.97102696H1053.42900149c10.5634323 0 17.39859437-5.59240533 20.50548622-16.777216 5.59240533-21.12686459 10.5634323-57.16681008 16.15583763-106.8770797 19.88410785-6.2137837 37.90408059-13.67032415 53.43853985-22.36962133l79.5364314 62.13783703c4.34964859 3.10689185 9.32067555 4.97102697 14.29170253 4.97102697 8.69929718 0 27.3406483-13.67032415 54.68129659-41.01097244 27.96202667-27.3406483 46.60337778-47.84613452 57.16681008-61.51645867 3.10689185-3.72827022 4.97102697-8.07791882 4.97102696-13.67032416 0-4.34964859-1.86413511-8.69929718-4.97102696-13.67032414-26.09789155-31.06891852-46.60337778-57.78818845-62.13783704-79.53643141 9.94205392-19.26272948 17.39859437-36.66132385 22.36962134-52.81716148l107.49845807-16.777216c4.34964859-0.62137837 8.07791882-3.10689185 11.18481066-7.45654044s4.97102697-8.69929718 4.97102697-13.67032415V449.24078459c0-4.97102697-1.86413511-9.32067555-4.97102697-13.67032414-3.10689185-3.72827022-7.45654045-6.2137837-11.80618903-6.83516208l-105.63432297-16.777216c-5.59240533-17.39859437-13.67032415-36.66132385-24.23375645-57.16681007 7.45654045-9.94205392 18.01997275-24.23375645 32.31167527-42.25372919 14.29170252-18.01997275 23.61237808-30.44754015 28.58340503-36.66132386 3.10689185-4.34964859 4.97102697-9.32067555 4.97102697-13.04894577 0-12.42756741-33.554432-49.71026963-100.04191763-111.2267283-4.34964859-3.72827022-9.32067555-5.59240533-14.29170252-5.59240533-6.2137837 0-10.5634323 1.86413511-13.67032415 4.97102697L1142.28610845 213.73838222c-18.64135111-9.94205392-36.03994548-16.777216-52.19578311-21.74824297l-16.15583763-106.25570133c-0.62137837-4.34964859-2.48551348-8.69929718-6.83516207-12.4275674-4.34964859-3.72827022-8.69929718-4.97102697-13.67032415-4.97102697h-129.24670104c-10.5634323 0-17.39859437 5.59240533-20.50548622 16.777216-5.59240533 21.74824297-10.5634323 57.78818845-16.15583764 107.49845808-18.64135111 5.59240533-36.03994548 12.42756741-53.43853984 21.74824296l-79.53643141-62.13783704c-4.34964859-3.10689185-9.32067555-4.97102697-14.29170252-4.97102696-8.69929718 0-26.71926992 13.67032415-54.68129659 41.01097244-27.3406483 27.3406483-46.60337778 48.46751289-57.16681007 62.13783705-3.10689185 3.10689185-4.97102697 7.45654045-4.97102697 13.04894577z m240.47342933 123.6542957c34.79718875-34.79718875 76.42953955-52.19578311 125.51843082-52.1957831 49.08889125 0 90.72124208 17.39859437 125.51843082 52.1957831 34.79718875 34.79718875 52.19578311 76.42953955 52.1957831 125.51843082 0 49.08889125-17.39859437 90.72124208-52.1957831 125.51843081-34.79718875 34.79718875-76.42953955 52.19578311-125.51843082 52.19578312-49.08889125 0-90.72124208-17.39859437-125.51843082-52.19578312-34.79718875-34.79718875-52.19578311-76.42953955-52.1957831-125.51843081 0-49.08889125 17.39859437-91.34262045 52.1957831-125.51843082zM204.62614756 227.40870637c6.2137837 13.67032415 13.04894578 25.47651318 20.50548623 36.03994548-23.61237808 52.19578311-35.41856711 83.88608-35.41856712 95.69226904 0 1.86413511 0.62137837 3.72827022 2.48551349 4.97102696 55.30267497 32.31167525 83.88608 48.46751289 85.7502151 48.4675129l4.3496486-1.24275675c18.64135111-19.26272948 40.38959408-44.73924267 64.00197215-77.6722963 9.32067555 0.62137837 16.15583763 1.24275675 20.50548622 1.24275675 4.34964859 0 11.80618903-0.62137837 20.50548622-1.24275675 6.2137837 9.94205392 18.64135111 25.47651318 36.03994548 46.60337778 17.39859437 21.74824297 27.96202667 32.31167525 31.69029689 32.31167527 0.62137837 0 8.07791882-3.72827022 20.50548622-11.18481067 13.04894578-7.45654045 26.71926992-15.53445925 41.01097245-23.61237808 14.29170252-8.07791882 22.36962133-13.04894578 24.23375644-13.67032415 1.86413511-1.24275675 2.48551348-3.10689185 2.48551349-4.97102696 0-11.80618903-11.80618903-43.49648592-35.41856711-95.69226904 8.07791882-10.5634323 14.91308089-22.36962133 20.50548621-36.03994548 68.97299911-6.83516208 103.14880948-14.29170252 103.14880949-21.74824296V108.72543763c0-7.45654045-34.17581037-14.29170252-103.14880949-21.74824296-5.59240533-12.42756741-12.42756741-24.23375645-20.50548621-36.03994549 23.61237808-52.19578311 35.41856711-83.88608 35.41856711-95.69226903 0-1.86413511-0.62137837-3.72827022-2.48551349-4.97102697-56.5454317-32.93305363-85.12883675-49.08889125-85.75021511-49.08889126-3.72827022 0-14.29170252 10.5634323-31.69029689 32.31167526C407.19549631-44.13364148 394.76792889-28.59918222 388.55414519-18.6571283c-9.32067555-0.62137837-16.15583763-1.24275675-20.50548622-1.24275673-4.34964859 0-11.80618903 0.62137837-20.50548622 1.24275673-6.2137837-9.94205392-18.64135111-25.47651318-36.03994549-47.22475615s-27.96202667-32.31167525-31.69029689-32.31167525c-0.62137837 0-29.82616178 16.15583763-85.75021511 49.08889125-1.86413511 1.24275675-2.48551348 3.10689185-2.48551347 4.97102697 0 11.80618903 11.80618903 43.49648592 35.4185671 95.69226903-8.07791882 11.80618903-15.53445925 23.61237808-20.50548622 36.03994548-68.97299911 6.83516208-103.14880948 14.29170252-103.14880948 21.74824297v96.93502578c-1.86413511 6.83516208 32.31167525 14.29170252 101.28467437 21.12686459z m100.663296-132.97497126c17.39859437-17.39859437 38.52545897-26.09789155 62.75921541-26.09789156S413.40928001 77.03514075 430.80787437 94.43373511C448.20646875 111.83232948 456.90576593 132.95919408 456.90576593 157.19295052c0 24.23375645-8.69929718 44.73924267-26.09789156 62.13783703-17.39859437 17.39859437-38.52545897 26.09789155-62.13783703 26.09789156s-44.73924267-8.69929718-62.13783703-26.09789156c-17.39859437-17.39859437-26.09789155-38.52545897-26.09789156-62.13783703-1.24275675-24.23375645 7.45654045-45.36062103 24.85513481-62.75921541zM204.62614756 937.6441837c6.2137837 13.67032415 13.04894578 25.47651318 20.50548623 36.03994548-23.61237808 52.19578311-35.41856711 83.88608-35.41856712 95.69226904 0 1.86413511 0.62137837 3.72827022 2.48551349 4.97102696 55.30267497 32.31167525 83.88608 48.46751289 85.7502151 48.4675129l4.97102697-1.86413511c18.64135111-19.26272948 40.38959408-44.73924267 64.00197214-77.6722963 9.32067555 0.62137837 16.15583763 1.24275675 20.50548622 1.24275674 4.34964859 0 11.80618903-0.62137837 20.50548623-1.24275674 6.2137837 9.94205392 18.64135111 25.47651318 36.03994549 46.60337778 17.39859437 21.74824297 27.96202667 32.31167525 31.69029688 32.31167525 0.62137837 0 8.07791882-3.72827022 20.50548623-11.18481067 13.04894578-7.45654045 26.71926992-15.53445925 41.01097244-23.61237806 14.29170252-8.07791882 22.36962133-13.04894578 24.23375645-13.67032415 1.86413511-1.24275675 2.48551348-3.10689185 2.48551348-4.97102697 0-11.80618903-11.80618903-43.49648592-35.41856712-95.69226903 8.07791882-10.5634323 14.91308089-22.36962133 20.50548622-36.03994549 68.97299911-6.83516208 103.14880948-14.29170252 103.14880948-21.74824296v-96.93502578c0-7.45654045-34.17581037-14.29170252-103.14880948-21.74824296-5.59240533-12.42756741-12.42756741-24.23375645-20.50548622-36.03994548 23.61237808-52.19578311 35.41856711-83.88608 35.41856712-95.69226904 0-1.86413511-0.62137837-3.72827022-2.48551348-4.97102696-56.5454317-32.93305363-85.12883675-49.08889125-85.75021512-49.08889126-3.72827022 0-14.29170252 10.5634323-31.69029688 32.31167526s-29.82616178 37.28270222-36.03994549 47.22475615c-9.32067555-0.62137837-16.15583763-1.24275675-20.50548623-1.24275675-4.34964859 0-11.80618903 0.62137837-20.50548622 1.24275675-6.2137837-9.94205392-18.64135111-25.47651318-36.03994548-47.22475615s-27.96202667-32.31167525-31.69029688-32.31167526c-0.62137837 0-29.82616178 16.15583763-85.75021512 49.08889126-1.86413511 1.24275675-2.48551348 3.10689185-2.48551347 4.97102696 0 11.80618903 11.80618903 43.49648592 35.4185671 95.69226904-8.07791882 11.80618903-15.53445925 23.61237808-20.50548621 36.03994548-68.97299911 6.83516208-103.14880948 14.29170252-103.14880949 21.74824296v96.93502578c-1.24275675 8.07791882 32.93305363 15.53445925 101.90605274 22.36962133z m100.663296-132.97497125c17.39859437-17.39859437 38.52545897-26.09789155 62.75921541-26.09789156s45.36062103 8.69929718 62.7592154 26.09789156c17.39859437 17.39859437 26.09789155 38.52545897 26.09789156 62.7592154 0 24.23375645-8.69929718 44.73924267-26.09789156 62.13783704-17.39859437 17.39859437-38.52545897 26.09789155-62.13783703 26.09789156s-44.73924267-8.69929718-62.13783703-26.09789156c-17.39859437-17.39859437-26.09789155-38.52545897-26.09789156-62.13783704-1.24275675-24.23375645 7.45654045-45.36062103 24.85513481-62.7592154z" fill="" p-id="3648"></path></svg>