<?xml version="1.0" standalone="no"?><!DOCTYPE svg PUBLIC "-//W3C//DTD SVG 1.1//EN" "http://www.w3.org/Graphics/SVG/1.1/DTD/svg11.dtd"><svg t="1561008496369" class="icon" style="" viewBox="0 0 1024 1024" version="1.1" xmlns="http://www.w3.org/2000/svg" p-id="2741" xmlns:xlink="http://www.w3.org/1999/xlink" width="128" height="128"><defs><style type="text/css"></style></defs><path d="M463.36 411.904c-0.768-0.896 0.256 1.152 1.536 2.56 0.256 0.256 0.512 0.64 0.768 0.896l-0.768-1.152c-0.64-0.64-1.024-1.536-1.536-2.304zM467.2 417.664c-0.384-0.64-0.768-1.152-1.024-1.664-0.128-0.256-0.384-0.384-0.512-0.64l1.536 2.304zM473.344 338.688c0.64-0.384 1.152-0.768 1.664-1.024 0.256-0.128 0.384-0.384 0.64-0.512l-2.304 1.536zM479.232 334.72c0.896-0.768-1.152 0.256-2.56 1.536-0.256 0.256-0.64 0.512-0.896 0.768l1.152-0.768c0.64-0.512 1.408-1.024 2.304-1.536zM474.88 425.088c-0.896-0.64-1.536-1.28-1.536-1.152 0 0 0.768 0.512 1.536 1.152zM544.64 337.536c0.896 0.64 1.536 1.28 1.536 1.152 0.128-0.128-0.64-0.64-1.536-1.152zM466.048 346.368c0.64-0.896 1.28-1.536 1.152-1.536 0 0-0.64 0.64-1.152 1.536zM553.6 416.128c-0.64 0.896-1.28 1.536-1.152 1.536 0 0.128 0.512-0.64 1.152-1.536zM544.512 424.96c-0.256 0.128-0.384 0.384-0.64 0.512 0.768-0.512 1.536-1.152 2.304-1.664-0.512 0.384-1.152 0.768-1.664 1.152zM540.416 427.776c-0.896 0.768 1.152-0.256 2.56-1.536 0.256-0.256 0.64-0.512 0.896-0.768l-1.152 0.768c-0.64 0.512-1.408 1.024-2.304 1.536z" fill="" p-id="2742"></path><path d="M549.12 420.608c1.792-1.792 3.584-3.712 5.248-5.76 0.384-0.64 0.768-1.152 0.896-1.28 2.176-3.328 4.224-6.912 6.016-10.496 1.664-4.736 2.944-9.472 3.968-14.464 0.128-2.432 0.256-4.992 0.384-7.424 0-2.432-0.128-4.992-0.384-7.424-0.896-4.864-2.304-9.728-3.968-14.464-1.536-3.072-3.072-5.888-4.864-8.832-0.384-0.384-1.28-1.664-2.816-4.096-1.408-1.536-2.816-3.2-4.352-4.608-1.792-1.792-3.712-3.584-5.76-5.248-0.64-0.384-1.152-0.768-1.28-0.896-3.328-2.176-6.912-4.224-10.496-6.016-4.736-1.664-9.472-2.944-14.336-3.968-4.992-0.384-9.984-0.384-14.976 0-4.864 0.896-9.728 2.304-14.336 3.968-3.072 1.536-5.888 3.072-8.832 4.864-0.384 0.384-1.664 1.28-4.096 2.816-1.536 1.408-3.2 2.816-4.608 4.352-1.792 1.792-3.584 3.712-5.248 5.76-0.384 0.64-0.768 1.152-0.896 1.28-2.176 3.328-4.224 6.912-6.016 10.496-1.664 4.736-2.944 9.472-3.968 14.336-0.384 4.992-0.384 9.984 0 14.976 0.896 4.864 2.304 9.728 3.968 14.336 1.536 3.072 3.072 5.888 4.864 8.832 0.384 0.384 1.28 1.664 2.816 4.096 1.408 1.536 2.816 3.2 4.352 4.608 1.792 1.792 3.712 3.584 5.76 5.248 0.64 0.384 1.152 0.768 1.28 0.896 3.328 2.176 6.912 4.224 10.496 6.016 4.736 1.664 9.472 2.944 14.336 3.968 4.992 0.384 9.984 0.384 14.976 0 4.864-0.896 9.728-2.304 14.336-3.968 3.072-1.536 5.888-3.072 8.832-4.864 0.384-0.384 1.664-1.28 4.096-2.816 1.664-1.28 3.2-2.688 4.608-4.224z" fill="" p-id="2743"></path><path d="M899.84 134.144L511.616 10.88 123.52 134.144c-14.592 4.608-24.448 18.176-24.32 33.536V658.304c0.768 3.328 19.072 84.096 98.432 162.304 61.056 60.16 207.488 137.472 271.36 171.008 9.984 5.248 14.72 7.168 18.944 9.472l18.944 9.472c4.992 2.688 13.952 2.56 18.944 0l18.944-9.472c37.376-18.304 210.304-110.976 280.832-180.48 79.488-78.208 97.792-158.976 98.56-162.304V167.68c0.256-15.36-9.728-28.928-24.32-33.536zM516.48 934.528l-0.256-0.128h0.64c-0.256 0.128-0.384 0.128-0.384 0.128z m129.664-322.176c0 20.48-16.64 37.12-37.12 37.12h-62.72v88.32c0 20.48-16.64 37.12-37.12 37.12s-37.12-16.64-37.12-37.12v-227.84c0-0.768 0.128-1.408 0.128-2.048-6.784-2.048-13.568-4.48-20.352-7.552-22.912-10.496-42.496-29.312-55.552-50.688-13.568-22.272-20.736-50.176-18.56-76.288 2.56-29.824 13.312-55.808 32.384-78.976 33.024-40.064 93.696-56.32 142.336-38.528 27.52 10.112 49.92 27.008 66.816 50.816 14.848 20.864 22.4 46.848 23.04 72.32 0 0.768 0.128 1.408 0 2.176 0 0.896 0 1.792-0.128 2.688-1.792 56.576-40.704 109.952-96 124.672v65.152h62.72c20.48 0 37.12 16.64 37.12 37.12v1.536z" fill="" p-id="2744"></path><path d="M556.288 350.592c0.768 0.896-0.256-1.152-1.536-2.56-0.256-0.256-0.512-0.64-0.768-0.896l0.768 1.152 1.536 2.304zM552.32 344.832c0.384 0.64 0.768 1.152 1.024 1.664 0.128 0.256 0.384 0.384 0.512 0.64-0.384-0.768-1.024-1.536-1.536-2.304z" fill="" p-id="2745"></path><path d="M540.416 427.776c0.768-0.512 1.664-1.024 2.432-1.536l1.152-0.768c0.256-0.128 0.384-0.384 0.64-0.512-2.56 1.536-3.712 2.432-4.224 2.816zM476.8 336.256l-1.152 0.768c-0.256 0.128-0.384 0.384-0.64 0.512 2.432-1.536 3.712-2.432 4.096-2.816l-2.304 1.536zM554.752 348.16l-0.768-1.152c-0.128-0.256-0.384-0.384-0.512-0.64 1.536 2.432 2.432 3.712 2.816 4.096-0.512-0.64-1.024-1.408-1.536-2.304zM464.896 414.336l0.768 1.152c0.128 0.256 0.384 0.384 0.512 0.64-1.536-2.432-2.432-3.712-2.816-4.096 0.512 0.64 0.896 1.536 1.536 2.304z" fill="#FFB46F" p-id="2746"></path></svg>