<?xml version="1.0" standalone="no"?><!DOCTYPE svg PUBLIC "-//W3C//DTD SVG 1.1//EN" "http://www.w3.org/Graphics/SVG/1.1/DTD/svg11.dtd"><svg t="1564210355093" class="icon" viewBox="0 0 1024 1024" version="1.1" xmlns="http://www.w3.org/2000/svg" p-id="2324" xmlns:xlink="http://www.w3.org/1999/xlink" width="128" height="128"><defs><style type="text/css"></style></defs><path d="M88.381 892.395c-0.242-8.52-0.277-19.858-0.175-31.99 0.126-15.505 0.543-31.771 1.07-45.327 0.558-14.069 1.27-25.611 1.965-30.917l1.178-8.918h0.122a399.574 399.574 0 0 1 8.918-42.072c4.589-17.039 10.171-33.219 16.549-48.398h0.042c6.634-15.753 14.168-30.575 22.397-44.306 8.587-14.317 17.904-27.479 27.717-39.326 9.886-11.929 19.447-22.511 29.061-32.104 9.648-9.639 19.228-18.154 29.137-25.929 9.923-7.808 20.438-15.082 31.915-22.193 11.325-7.022 23.429-13.791 36.706-20.685l2.234-1.155h0.138a117.402 117.402 0 0 1 3.997-1.857 172.616 172.616 0 0 1 5.531-2.357l0.006 0.018 0.315-0.126c3.64-1.512 7.256-3.007 11.021-4.905l11.339-5.714-8.019-9.868a53.41 53.41 0 0 0-4.602-4.964h-0.041c-1.477-1.42-3.682-3.362-6.103-5.497l0.024-0.024c-4.105-3.59-9.057-7.962-14.445-13.507a168.852 168.852 0 0 1-17.382-21.005c-13.672-19.5-23.679-39.737-30.341-60.114-7.035-21.533-10.377-43.342-10.414-64.752a210.707 210.707 0 0 1 6.208-51.003 216.842 216.842 0 0 1 18.498-48.492 218.29 218.29 0 0 1 29.157-42.398c11.258-12.82 24.065-24.356 38.177-34.242 17.397-12.195 36.806-21.919 57.738-28.478 19.941-6.259 41.438-9.706 64.04-9.748 23.587-0.037 45.776 3.542 66.233 10.092a205.318 205.318 0 0 1 58.863 30.003c13.719 10.049 26.115 21.754 37.023 34.7a222.035 222.035 0 0 1 28.271 42.9v0.041c7.673 15.269 13.609 31.401 17.604 47.97 3.95 16.38 6.037 33.272 6.066 50.252 0.032 21.58-3.227 43.317-10.11 64.402-13.5 41.344-32.442 65.108-63.444 93.919-36.364 28.992-83.478 55.586-140.501 53.844-21.49 0.045-43.142 2.522-64.349 7.108a325.21 325.21 0 0 0-62.742 20.448c-20.16 8.934-39.243 19.887-56.566 32.482-17.021 12.376-32.361 26.355-45.38 41.592-6.512 7.612-12.686 15.18-18.561 22.959-5.753 7.612-11.133 15.347-16.158 23.427a283.66 283.66 0 0 0-14.372 26.03c-4.479 9.243-8.725 19.215-12.745 30.176-3.393 9.26-6.845 21.327-9.895 34.81-2.901 12.869-5.442 26.909-7.201 40.93v0.04c-1.603 12.743-2.637 25.664-2.812 37.931-0.15 10.884 0.376 21.38 1.778 30.88l1.288 30.396c3.833 25.006-50.036 53.696-55.968-4.979zM713.44 608.397c25.298 0 48.22 10.265 64.799 26.844s26.848 39.501 26.848 64.804c0 25.298-10.269 48.22-26.848 64.799s-39.501 26.84-64.799 26.84-48.22-10.261-64.799-26.84c-16.583-16.579-26.844-39.501-26.844-64.799 0-25.303 10.261-48.225 26.844-64.804 16.58-16.579 39.502-26.844 64.799-26.844z m32.74 58.904c-8.365-8.368-19.952-13.556-32.739-13.556-12.792 0-24.375 5.188-32.743 13.556-8.369 8.369-13.549 19.952-13.549 32.744 0 12.787 5.18 24.37 13.549 32.738 8.368 8.369 19.951 13.553 32.743 13.553 12.787 0 24.374-5.184 32.739-13.553 8.368-8.368 13.556-19.951 13.556-32.738-0.001-12.792-5.188-24.375-13.556-32.744z m107.472 73.152c-7.709-12.32-13.255-26.051-13.255-38.891 0-23.605 11.925-37.455 26.152-53.985 5.232-6.082 10.798-12.571 16.091-19.988-7.917-9.757-11.461-17.084-14-22.336-2.404-4.984-3.441-7.124-9.275-7.124-9.305 0-17.747 0.492-25.66 0.947-46.146 2.682-76.346 4.415-96.961-79.624H683.83c-4.289 9.179-7.971 17.963-11.295 25.921-20.37 48.752-28.825 68.932-116.529 49.135-24.603 37.536-17.963 42.125-7.474 49.347 12.222 8.397 28.19 19.382 28.19 57.708 0 30.074-15.798 46.043-27.995 58.354-6.245 6.307-11.343 11.457-11.343 15.949 0 5.492 3.86 11.847 7.859 18.414 2.865 4.707 5.798 9.528 7.849 14.699 10.334-0.98 19.479-2.238 27.809-3.377 49.851-6.827 73.147-10.017 97.334 63.322 1.925 5.858 2.612 9.442 2.979 11.66 1.399 0.558 3.458 1.403 6.619 2.97 0.749 0.37 1.794 0.806 3.084 1.229 6.021 2.03 16.689 4.215 27.328 2.913 9.931-1.216 19.797-5.614 25.184-16.465v-0.024a36.808 36.808 0 0 0 1.921-4.626h0.004c24.265-71.976 49.062-68.062 92.778-61.157h0.024c8.022 1.261 16.762 2.652 26.53 3.604l17.873-35.726c-9.227-7.263-20.448-19.318-28.907-32.849zM680.966 881.194c0.297 0.427 0.216 0.28 0.069 0.016-0.18-0.199-0.317-0.378-0.069-0.016zM580.233 553.258c31.364 6.814 45.657 9.914 63.628-67.21l0.821-3.542 3.54-0.822c25.424-5.926 43.39-8.998 61.813-9.053 18.394-0.061 36.848 2.909 63.24 9.053l3.544 0.828 0.817 3.536c8.694 37.326 14.065 58.157 26.877 66.253 13.039 8.243 35.843 5.176 79.746-5.049l3.922-0.911 2.25 3.36a704.947 704.947 0 0 0 5.505 8.035c14.679 21.201 39.216 56.67 39.216 82.619 0 5.98-6.807 12.926-15.338 21.624-12.107 12.336-28.378 28.927-28.378 43.952 0 8.779 12.186 22.178 23.256 34.375 10.663 11.729 20.46 22.511 20.46 31.192 0 25.123-29.947 62.321-43.528 79.197-2.75 3.418-4.801 5.957-5.562 7.1l-1.916 2.868-3.406-0.293c-21.115-1.753-36.754-4.475-48.602-6.518-14.276-2.474-22.589-3.918-27.458-1.566-6.893 3.328-11.148 16.205-21.295 46.983l-2.75 8.336h-0.013l-1.48 4.565h-0.009c-2.205 6.94-3.364 10.521-6.855 13.418l0.013 0.012c-3.495 2.917-7.686 3.642-16.217 5.102l-3.845 0.659v0.009c-6.103 1.069-12.226 1.908-18.947 2.474-6.721 0.562-14.049 0.862-22.539 0.862-67.188 0-68.888-6.534-73.713-25.095-0.448-1.709-0.933-3.563-1.534-5.524-1.155-3.76-2.124-7.535-3.133-11.51-4.564-17.935-10.424-40.926-26.522-40.926-12.1 0-23.174 2.462-33.284 4.699-22.633 5.013-41.015 9.077-57.757-12.295-12.602-16.095-19.101-32.34-25.953-49.477l-0.004 0.008c-3.277-8.189-6.64-16.6-10.643-24.948l-2.183-4.548 4.185-2.812c6.113-4.089 19.7-17.706 30.668-30.673 8.242-9.735 14.813-18.564 14.813-21.303 0-17.693-6.416-24.386-16.931-35.351-7.079-7.38-15.847-16.522-25.776-31.348l-1.414-2.12 0.567-2.453c7.468-32.063 21.036-50.616 35.917-70.991l0.012 0.004c4.215-5.781 8.572-11.721 12.999-18.345l1.778-2.648 3.182 0.069c17.8 0.394 32.126 3.51 44.216 6.139zM293.092 285.613c-0.653 4.893-1.021 9.88-1.021 14.783 0 23.117 4.148 44.169 11.5 62.885a155.723 155.723 0 0 0 33.473 51.867 160.551 160.551 0 0 0 24.81 20.757 162.674 162.674 0 0 0 28.66 15.436c10.067 4.178 20.45 7.352 30.908 9.451a162.242 162.242 0 0 0 31.909 3.149c19.991 0 40.089-3.723 59.121-11.481 18.004-7.34 35.115-18.284 50.328-33.097a165.867 165.867 0 0 0 30.42-40.355l0.012 0.006c7.962-14.886 13.548-30.825 16.51-47.17a156.195 156.195 0 0 0 1.046-49.526c-2.233-16.109-7.042-32.072-14.541-47.345-8.434-17.196-19.134-31.966-31.421-44.277a155.96 155.96 0 0 0-43.329-30.632 158.613 158.613 0 0 0-34.013-11.701 163.593 163.593 0 0 0-36.244-3.838c-11.99 0.071-24.114 1.523-36.043 4.311-11.754 2.752-23.182 6.79-33.98 12.093a157.013 157.013 0 0 0-43.039 31.104c-12.081 12.321-22.543 27.094-30.717 44.247-2.032 4.258-4.142 9.433-6.119 15.19-1.918 5.574-3.672 11.44-5.055 17.238-1.318 5.526-2.431 11.246-3.175 16.905z" p-id="2325" data-spm-anchor-id="a313x.7781069.0.i14" class="selected"></path></svg>