<?xml version="1.0" standalone="no"?><!DOCTYPE svg PUBLIC "-//W3C//DTD SVG 1.1//EN" "http://www.w3.org/Graphics/SVG/1.1/DTD/svg11.dtd"><svg t="1562813884780" class="icon" viewBox="0 0 1024 1024" version="1.1" xmlns="http://www.w3.org/2000/svg" p-id="2029" xmlns:xlink="http://www.w3.org/1999/xlink" width="128" height="128"><defs><style type="text/css"></style></defs><path d="M445.856 304l39.68 0 0 384-39.68 0 0-384Z" p-id="2030"></path><path d="M339.2 432l39.68 0 0 256-39.68 0 0-256Z" p-id="2031"></path><path d="M552.544 528l39.68 0 0 160-39.68 0 0-160Z" p-id="2032"></path><path d="M659.2 400l39.68 0 0 304-39.68 0 0-304Z" p-id="2033"></path><path d="M768 748.16a19.84 19.84 0 1 1 0 39.68h-448c-65.344 0-83.84-19.744-83.84-83.84V256a19.84 19.84 0 1 1 39.68 0v448c0 42.752 1.312 44.16 44.16 44.16h448z" p-id="2034"></path></svg>