<?xml version="1.0" standalone="no"?><!DOCTYPE svg PUBLIC "-//W3C//DTD SVG 1.1//EN" "http://www.w3.org/Graphics/SVG/1.1/DTD/svg11.dtd"><svg t="1561008474564" class="icon" style="" viewBox="0 0 1024 1024" version="1.1" xmlns="http://www.w3.org/2000/svg" p-id="2000" xmlns:xlink="http://www.w3.org/1999/xlink" width="128" height="128"><defs><style type="text/css"></style></defs><path d="M399.616 736.896c0-58.688 13.312-110.912 39.936-163.072C193.152 586.88 0 782.464 0 1023.744h552.768c-93.248-65.152-153.152-169.472-153.152-286.848z m66.56-228.288h13.376c53.248-58.688 126.528-104.32 206.464-117.376 26.624-39.04 39.936-84.736 39.936-136.96C725.952 110.976 606.08 0 459.52 0 313.024 0 193.152 117.376 193.152 254.336c6.656 136.96 126.528 254.272 273.088 254.272z m552.832 280.448s-6.656 0 0 0c-19.968-6.528-26.624-13.056-33.28-26.112a49.28 49.28 0 0 1-13.376-32.64 49.28 49.28 0 0 1 13.376-32.576c6.656-12.992 19.968-19.52 26.624-19.52l6.656-6.528c0-6.528 6.656-6.528 0-13.056 0-13.056-6.656-19.584-6.656-32.64-6.656-12.992-6.656-19.52-13.312-19.52 0 0-6.656-6.528-13.312-6.528h-13.376c-13.312 6.528-19.968 6.528-33.28 6.528a51.456 51.456 0 0 1-33.28-13.056 49.28 49.28 0 0 1-13.312-32.64c0-12.992 0-19.52 6.656-32.576V515.2c0-6.528-6.656-6.528-13.312-12.992-6.656-6.528-13.312-6.528-13.312-6.528-6.72 0-13.376-6.528-20.032-6.528h-19.968c-6.656 0-6.656 0-6.656 6.528l-6.656 6.528c-6.656 12.992-13.312 19.52-19.968 26.048a51.456 51.456 0 0 1-33.28 13.056c-13.376 0-20.032-6.528-33.28-13.056 0-6.528-6.72-19.584-13.376-26.048 0 0 0-6.528-6.656-6.528 0 0-6.656-6.528-13.312-6.528h-13.312c-6.656 0-13.312 0-19.968 6.528-6.72 0-6.72 6.528-13.376 6.528-6.656 6.464-13.312 6.464-13.312 12.992v45.696c0 6.464 0 12.992-6.656 19.52 0 6.528-6.656 13.056-6.656 13.056-6.656 6.528-19.968 13.056-26.624 13.056-13.312 0-19.968 0-33.28-6.528h-13.376c-13.312 6.528-13.312 6.528-19.968 13.056 0 6.528-6.656 6.528-6.656 12.992 0 6.528-6.656 13.056-6.656 19.584v26.112c0 6.528 6.656 6.528 6.656 6.528 13.312 6.528 19.968 12.992 26.624 19.52a49.28 49.28 0 0 1 13.376 32.64 49.28 49.28 0 0 1-13.376 32.64c-6.656 12.992-19.968 19.52-26.624 19.52-6.656 0-6.656 6.528-13.312 13.056v19.52c0 6.528 6.656 13.056 6.656 19.584 0 6.528 6.656 13.056 6.656 19.584l13.312 12.992h13.312c6.656 0 13.376-6.464 26.688-6.464h19.968c6.656 0 13.312 6.464 19.968 12.992 6.656 6.528 13.312 19.584 13.312 26.112 0 13.056 0 19.584-6.656 26.048 0 6.528-6.656 13.056-6.656 13.056v6.528c0 6.528 6.656 6.528 13.312 13.056s13.312 6.528 19.968 6.528c6.656 0 13.376 6.528 20.032 6.528h33.28c6.656 0 6.656-6.528 6.656-6.528 6.656-13.056 13.312-19.584 19.968-26.112 13.312-6.528 19.968-13.056 33.28-13.056 13.376 0 26.688 6.528 33.28 13.056 6.72 6.528 13.376 19.584 20.032 26.112 0 0 0 6.528 6.656 6.528l6.656 6.528h13.312c6.656 0 13.312-6.528 19.968-6.528 6.72 0 13.376-6.528 13.376-6.528 6.656 0 6.656-6.528 13.312-6.528 6.656-6.528 6.656-13.056 0-19.584-6.656-13.056-6.656-19.52-6.656-32.64 0-12.992 6.656-19.52 13.312-32.576 6.656-6.528 6.656-6.528 13.312-6.528s13.312 0 19.968-6.464h59.968c6.656 0 6.656-6.528 13.312-13.056s6.656-13.056 6.656-19.584c0-6.528 6.656-13.056 6.656-19.584v-19.52c6.656 6.528 6.656 6.528 0 0z m-133.184-6.528c-6.656 13.056-13.312 26.048-26.688 39.104-13.312 13.056-26.624 19.584-39.936 26.112-13.312 6.528-33.28 6.528-46.592 6.528-13.376 0-33.28 0-46.656-6.528-13.312-6.528-26.624-13.056-39.936-26.112-13.312-13.056-19.968-26.048-26.688-39.104-6.656-13.056-6.656-26.112-6.656-45.632 0-19.584 0-32.64 6.656-45.696 6.72-12.992 13.376-26.048 26.688-39.04 13.312-13.12 19.968-19.648 39.936-26.176 13.312-6.464 26.624-6.464 46.656-6.464 13.312 0 33.28 0 46.592 6.464 13.312 6.528 26.624 13.056 39.936 26.112 13.376 13.056 20.032 26.112 26.688 39.104 6.656 13.056 6.656 26.112 6.656 45.696 0 12.992-6.656 26.048-6.656 45.632z" p-id="2001"></path></svg>