<?xml version="1.0" standalone="no"?><!DOCTYPE svg PUBLIC "-//W3C//DTD SVG 1.1//EN" "http://www.w3.org/Graphics/SVG/1.1/DTD/svg11.dtd"><svg t="1560422482186" class="icon" style="" viewBox="0 0 1024 1024" version="1.1" xmlns="http://www.w3.org/2000/svg" p-id="5150" xmlns:xlink="http://www.w3.org/1999/xlink" width="128" height="128"><defs><style type="text/css"></style></defs><path d="M63.10934 323.982836h73.721025v110.581537H63.10934zM63.10934 176.539762h73.721025v110.581538H63.10934zM210.55139 65.958224h110.581538v73.721025H210.55139zM63.10934 65.958224h110.581538v73.721025H63.10934zM173.690878 360.843348h110.581537v73.721025H173.690878zM321.132928 360.843348h110.581538v73.721025H321.132928zM63.10934 950.613596h368.606149V582.007447H63.10934V950.613596z m73.721025-294.885124h221.164099v221.163076H136.830365V655.728472zM357.994464 65.958224h73.721025v110.581538h-73.721025zM357.994464 213.401298h73.721025v110.581538h-73.721025zM959.382307 477.329363c0-226.586598-183.693696-410.280294-410.279271-410.280294v74.595952c171.146938-0.124843 314.984904 128.528282 333.87616 298.629401 20.212344 181.997054-109.086487 346.124112-289.819758 369.848443V643.832538l-72.906474 0.007163-0.007163 227.220025 0.007163 78.611405h294.42259l0.007163-78.611405H664.741753c170.272012-49.928133 294.640554-207.300346 294.640554-393.730363z" p-id="5151"></path></svg>