<?xml version="1.0" standalone="no"?><!DOCTYPE svg PUBLIC "-//W3C//DTD SVG 1.1//EN" "http://www.w3.org/Graphics/SVG/1.1/DTD/svg11.dtd"><svg t="1560422553230" class="icon" style="" viewBox="0 0 1024 1024" version="1.1" xmlns="http://www.w3.org/2000/svg" p-id="7910" xmlns:xlink="http://www.w3.org/1999/xlink" width="128" height="128"><defs><style type="text/css"></style></defs><path d="M896.8 324.1c0 11.3 6 21.7 15.7 27.4 9.7 5.6 21.7 5.6 31.4 0s15.7-16.1 15.7-27.4c0-11.3-6-21.7-15.7-27.4-9.7-5.6-21.7-5.6-31.4 0-9.7 5.7-15.7 16.1-15.7 27.4z m0 0M896.8 475.5c0 11.3 6 21.7 15.7 27.4 9.7 5.6 21.7 5.6 31.4 0s15.7-16.1 15.7-27.4c0-11.3-6-21.7-15.7-27.4-9.7-5.6-21.7-5.6-31.4 0-9.7 5.7-15.7 16.1-15.7 27.4z m0 0M343.7 460.5c-9.9-11.2-26.9-12.1-38.1-2.2-11.2 9.9-12.1 26.9-2.2 38.1l172.1 194.9c4.9 5.8 12.5 9 20.2 9h0.9c8.1 0 15.2-4 20.2-10.3L846 271.4c9-11.6 7.2-28.7-4.5-37.6-11.6-9-28.7-7.2-37.6 4.5L494.7 631.6l-151-171.1z" p-id="7911"></path><path d="M895.8 608.6v119.9c0 91.9-75.2 167.1-167.1 167.1H295.3c-91.9 0-167.1-75.2-167.1-167.1V295.1c0-91.9 75.2-167.1 167.1-167.1h184.1c18 0 32.6-14.6 32.6-32.6v-0.7c0-18-14.6-32.6-32.6-32.6H232.1C140.2 62.1 65 137.3 65 229.3V791c0 91.9 75.2 167.1 167.1 167.1h561.7c91.9 0 167.1-75.2 167.1-167.1V608.6c0-18-14.6-32.6-32.6-32.6-17.9 0-32.5 14.6-32.5 32.6z" p-id="7912"></path></svg>