<?xml version="1.0" standalone="no"?><!DOCTYPE svg PUBLIC "-//W3C//DTD SVG 1.1//EN" "http://www.w3.org/Graphics/SVG/1.1/DTD/svg11.dtd"><svg t="1561008643091" class="icon" style="" viewBox="0 0 1024 1024" version="1.1" xmlns="http://www.w3.org/2000/svg" p-id="4831" xmlns:xlink="http://www.w3.org/1999/xlink" width="128" height="128"><defs><style type="text/css"></style></defs><path d="M781.238299 220.379271C756.077174 75.337089 619.007558-21.430842 475.135661 4.095997 331.483192 29.622836 210.139278 141.311899 235.519832 286.207796c5.48571 31.30512 20.626271 80.164514 38.546258 115.346203L13.092562 777.508016a86.015939 86.015939 0 0 0-12.214848 55.588532l11.337134 64.292525c-10.751992-61.951956 2.925712 22.381698 11.337135 22.015985l85.942796 1.243427c16.603417-2.925712 37.449116-16.969131 46.518824-31.158835l103.27764-161.279884 0.877714-1.097143 90.185078 7.094853 120.612486-188.78158s26.843409-54.857104 126.317624-107.666209c90.989649-42.057113 167.277595-33.279976 167.277595-33.279976 22.089127-55.222818 27.867409-120.4662 16.676559-184.10044z m-697.636073 582.875012l-22.601127 14.189705 5.266282-25.526839 244.955254-349.988322 16.969131 11.849135-244.58954 349.476321z m570.440735-508.708208c-39.570257 56.831959-79.945086 16.749702-136.338188-23.113126-56.393103-39.935971-107.666209-64.292526-68.095951-121.343913a124.269626 124.269626 0 0 1 173.787304-31.01255c56.31996 40.082257 70.217093 118.63763 30.646835 175.469589z m94.500504 179.419301a275.236375 275.236375 0 0 0-275.455803 275.016946A275.236375 275.236375 0 0 0 748.543465 1023.999269 275.236375 275.236375 0 0 0 1023.999269 748.982322a275.236375 275.236375 0 0 0-275.455804-275.016946z m159.158744 387.876294c0 41.033114-78.774801 50.468535-152.79532 50.468535s-153.746176-9.435422-153.746176-50.468535v-11.410277c0-30.207978 54.564532-60.854814 100.863928-77.458231 3.437712-1.170285 19.455986-10.020564 10.386279-33.426262a147.60218 147.60218 0 0 1-40.301686-98.889072c0-57.270816 37.887973-87.259366 82.431941-87.259366 44.32454 0 82.578227 30.061693 82.578227 87.259366 0 37.229688-17.48113 75.044518-40.301685 98.669644h0.219428c-8.850279 26.623981 5.193139 32.987405 7.387423 33.64569 48.713108 16.018274 103.423926 46.445681 103.423926 77.458231l-0.146285 11.410277z" p-id="4832"></path></svg>