<?xml version="1.0" standalone="no"?><!DOCTYPE svg PUBLIC "-//W3C//DTD SVG 1.1//EN" "http://www.w3.org/Graphics/SVG/1.1/DTD/svg11.dtd"><svg t="1562117893255" class="icon" viewBox="0 0 1179 1024" version="1.1" xmlns="http://www.w3.org/2000/svg" p-id="3298" xmlns:xlink="http://www.w3.org/1999/xlink" width="147.375" height="128"><defs><style type="text/css"></style></defs><path d="M284.16 117.76H1126.4c15.872 0 28.672-12.8 28.672-28.16s-12.8-28.672-28.672-28.672H284.16c-15.872 0-28.16 12.8-28.16 28.672s12.8 28.16 28.16 28.16zM124.928 60.928H28.672c-15.872 0-28.672 12.8-28.672 28.672S12.8 117.76 28.672 117.76h96.768c15.872 0 28.672-12.8 28.672-28.16s-13.312-28.672-29.184-28.672zM1126.4 342.528H284.16c-15.872 0-28.16 12.8-28.16 28.672s12.8 28.672 28.16 28.672H1126.4c15.872 0 28.672-12.8 28.672-28.672s-12.8-28.672-28.672-28.672zM124.928 342.528H28.672c-15.872 0-28.672 12.8-28.672 28.672s12.8 28.672 28.672 28.672h96.768c15.872 0 28.672-12.8 28.672-28.672-0.512-15.872-13.312-28.672-29.184-28.672zM586.24 905.728h-302.08c-15.872 0-28.16 12.8-28.16 28.16 0 15.872 12.8 28.672 28.16 28.672h301.568c15.872 0 28.672-12.8 28.672-28.672 0-15.36-12.8-28.16-28.16-28.16zM124.928 905.728H28.672c-15.872 0-28.672 12.8-28.672 28.16 0 15.872 12.8 28.672 28.672 28.672h96.768c15.872 0 28.672-12.8 28.672-28.672-0.512-15.36-13.312-28.16-29.184-28.16zM586.24 624.128h-302.08c-15.872 0-28.16 12.8-28.16 28.16 0 15.872 12.8 28.672 28.16 28.672h301.568c15.872 0 28.672-12.8 28.672-28.672 0-15.36-12.8-28.16-28.16-28.16zM124.928 624.128H28.672c-15.872 0-28.672 12.8-28.672 28.16 0 15.872 12.8 28.672 28.672 28.672h96.768c15.872 0 28.672-12.8 28.672-28.672-0.512-15.36-13.312-28.16-29.184-28.16zM611.84 762.368c-6.656 0-13.312-2.56-17.92-7.68-10.24-10.24-10.24-26.112 0-36.352l270.848-270.848c10.24-10.24 26.112-10.24 36.352 0s10.24 26.112 0 36.352l-270.848 270.848c-5.12 5.12-11.776 7.68-18.432 7.68z" p-id="3299"></path><path d="M1153.536 762.368c-6.656 0-13.312-2.56-17.92-7.68l-270.848-270.848c-10.24-10.24-10.24-26.112 0-36.352s26.112-10.24 36.352 0l270.848 270.848c10.24 10.24 10.24 26.112 0 36.352-5.632 5.12-12.288 7.68-18.432 7.68zM659.968 977.92c-14.336 0-25.6-11.264-25.6-25.6v-251.392c0-14.336 11.264-25.6 25.6-25.6s25.6 11.264 25.6 25.6V952.32c0 13.824-11.776 25.6-25.6 25.6z" p-id="3300"></path><path d="M1105.408 977.92c-14.336 0-25.6-11.264-25.6-25.6v-251.392c0-14.336 11.264-25.6 25.6-25.6s25.6 11.264 25.6 25.6V952.32c0 13.824-11.264 25.6-25.6 25.6z" p-id="3301"></path><path d="M1092.608 977.92h-420.352c-14.336 0-25.6-11.264-25.6-25.6s11.264-25.6 25.6-25.6h420.352c14.336 0 25.6 11.264 25.6 25.6s-11.776 25.6-25.6 25.6zM945.152 753.152h-125.44c-14.336 0-25.6-11.264-25.6-25.6s11.264-25.6 25.6-25.6h125.44c14.336 0 25.6 11.264 25.6 25.6s-11.264 25.6-25.6 25.6z" p-id="3302"></path></svg>