<?xml version="1.0" standalone="no"?><!DOCTYPE svg PUBLIC "-//W3C//DTD SVG 1.1//EN" "http://www.w3.org/Graphics/SVG/1.1/DTD/svg11.dtd"><svg t="1562117853245" class="icon" viewBox="0 0 1024 1024" version="1.1" xmlns="http://www.w3.org/2000/svg" p-id="3082" xmlns:xlink="http://www.w3.org/1999/xlink" width="128" height="128"><defs><style type="text/css"></style></defs><path d="M894.9 311.7L737.7 112.5c-5.2-6.6-12.9-10.3-21.2-10.3H303.7c-8.4 0-16.3 3.9-21.2 10.4L125.3 311.7c-4.8 6-5.9 17.5-5.9 21.1V877c0 17.8 0 26.7 5.9 32.6 5.9 5.9 14.8 5.9 32.6 5.9h704.2c15.2 0 24.3 0 30.7-5.6 6.6-5.8 7.8-15.6 7.8-32.9V333c0.2-5.6-1.5-16.1-5.7-21.3z m-697.4-16.6l116.3-147.9h173.3v147.9H197.5z m335.8 0V147.2h176.4l115.5 147.9H533.3z m322.3 44.1v531.2H164.4V339.2h691.2z" p-id="3083"></path></svg>